<svg version="1.1" id="Layer_1" xmlns="http://www.w3.org/2000/svg" xmlns:xlink="http://www.w3.org/1999/xlink" x="0px" y="0px"
	 width="100%" viewBox="0 0 500 215" enable-background="new 0 0 500 215" xml:space="preserve">
<path fill="#FEFEFE" opacity="1.000000" stroke="none" 
	d="
M375.000000,216.000000 
	C250.000015,216.000000 125.500046,216.000000 1.000050,216.000000 
	C1.000033,144.333374 1.000033,72.666740 1.000017,1.000079 
	C167.666611,1.000053 334.333221,1.000053 500.999878,1.000026 
	C500.999908,72.666588 500.999908,144.333176 500.999939,215.999878 
	C459.166656,216.000000 417.333344,216.000000 375.000000,216.000000 
M53.192669,66.744118 
	C61.786797,58.723141 64.856476,49.019375 61.229454,37.763100 
	C57.802094,27.126461 50.103268,20.470709 39.126373,19.382740 
	C29.109760,18.389952 18.917204,19.172325 8.602469,19.172325 
	C8.602469,41.853432 8.602469,64.253166 8.602469,86.772423 
	C13.134309,86.772423 17.385921,86.772423 22.150284,86.772423 
	C22.150284,82.157440 22.150284,77.755890 22.150284,73.197495 
	C32.956493,72.787239 43.833157,75.024101 53.192669,66.744118 
M20.515841,134.993256 
	C16.579103,134.993256 12.642367,134.993256 8.617643,134.993256 
	C8.617643,157.940170 8.617643,180.317551 8.617643,202.760010 
	C13.163900,202.760010 17.414173,202.760010 22.169367,202.760010 
	C22.169367,198.135422 22.169367,193.739883 22.169367,189.123138 
	C26.983665,189.123138 31.289326,189.134979 35.594902,189.120972 
	C49.730694,189.075012 60.906322,178.997482 62.538189,164.835999 
	C64.081291,151.444855 54.918945,138.341507 41.376606,135.860214 
	C34.918671,134.676987 28.143003,135.227859 20.515841,134.993256 
M199.823166,200.402649 
	C201.827286,199.040756 203.831390,197.678848 205.660690,196.435745 
	C209.007706,197.990356 208.875458,203.530762 213.753967,202.782990 
	C213.753967,179.152466 213.753967,155.744537 213.753967,132.260071 
	C209.435638,132.260071 205.371384,132.260071 200.784424,132.260071 
	C200.784424,139.828857 200.784424,147.142227 200.784424,154.845474 
	C190.502045,146.842072 176.881195,150.714783 169.871796,157.884171 
	C160.854874,167.106903 159.797974,182.536972 167.274506,193.238358 
	C172.855347,201.226364 186.208603,207.990509 199.823166,200.402649 
M402.687134,59.500130 
	C402.687134,51.900623 402.687134,44.301113 402.687134,36.582466 
	C398.119476,36.582466 394.204102,36.582466 389.869049,36.582466 
	C389.869049,45.471127 389.892517,54.096992 389.861877,62.722664 
	C389.835480,70.158485 385.794281,75.003899 379.710663,74.985573 
	C373.496704,74.966850 370.151031,70.821419 370.135101,63.059788 
	C370.117065,54.288563 370.130951,45.517277 370.130951,36.573952 
	C365.664124,36.573952 361.754517,36.573952 357.587555,36.573952 
	C357.587555,46.932461 357.038086,57.071518 357.729950,67.125153 
	C358.550720,79.052315 365.901642,86.332550 377.691620,87.670517 
	C381.031647,88.049538 384.549225,86.864075 388.281830,86.355736 
	C384.365234,93.918770 377.545410,93.985107 370.511108,93.373894 
	C370.511108,97.912300 370.511108,101.841301 370.511108,105.736832 
	C388.842133,108.807014 402.634430,97.257706 402.684448,78.983322 
	C402.701324,72.822289 402.687073,66.661179 402.687134,59.500130 
M106.669807,83.259010 
	C108.168465,81.951965 109.800087,80.768158 111.144112,79.317818 
	C119.588539,70.205460 120.364143,55.075081 112.990532,44.731720 
	C106.094902,35.058857 92.710312,31.504488 81.836197,36.458485 
	C67.886742,42.813534 62.162731,59.563545 69.126053,73.563240 
	C75.026085,85.425186 91.009659,93.073067 106.669807,83.259010 
M442.374878,167.346405 
	C436.664307,152.843384 421.428680,146.270920 407.846924,152.451508 
	C393.904175,158.796326 388.157318,175.535263 395.116486,189.531479 
	C401.701965,202.776123 417.801300,207.724823 430.761810,200.488297 
	C441.619476,194.425903 445.984894,182.577469 442.374878,167.346405 
M130.639587,150.325958 
	C118.178123,151.437057 109.975761,157.674347 106.535980,168.654968 
	C100.774567,187.046753 115.593262,206.353088 133.487381,203.768250 
	C148.146683,201.650681 157.440796,190.567688 157.005325,175.723633 
	C156.581879,161.288498 146.686005,151.437790 130.639587,150.325958 
M268.689911,193.429520 
	C268.689911,179.838043 268.689911,166.246552 268.689911,152.600861 
	C264.068390,152.600861 260.148193,152.600861 255.866547,152.600861 
	C255.866547,161.859039 255.946487,170.832016 255.839951,179.802795 
	C255.761780,186.385162 251.361710,191.064896 245.618301,190.982544 
	C239.979248,190.901718 236.239624,186.853622 236.162628,180.380585 
	C236.052612,171.130981 236.134598,161.879089 236.134598,152.638779 
	C231.512436,152.638779 227.607788,152.638779 223.726776,152.638779 
	C223.726776,163.420273 222.942169,173.945694 223.904541,184.308899 
	C225.479599,201.269882 243.796768,209.233704 257.921448,199.681335 
	C259.093994,198.888336 260.293823,198.135620 261.002594,197.675049 
	C263.472961,199.826874 265.542145,201.629227 267.611298,203.431580 
	C267.970825,203.080231 268.330322,202.728882 268.689850,202.377533 
	C268.689850,199.719177 268.689850,197.060822 268.689911,193.429520 
M491.985779,160.630646 
	C482.775513,149.636581 472.039032,148.375488 458.621521,156.571625 
	C456.347717,154.971619 454.148834,153.424332 451.359772,151.461746 
	C451.359772,169.499283 451.359772,186.196259 451.359772,202.626007 
	C455.790924,202.626007 459.855011,202.626007 464.001740,202.626007 
	C464.001740,192.771469 463.946014,183.291397 464.024170,173.812424 
	C464.065979,168.740967 467.561462,164.802979 472.304993,164.168533 
	C477.340912,163.494980 481.875793,166.505981 483.118408,171.626999 
	C483.619202,173.690750 483.697357,175.891647 483.714142,178.032120 
	C483.778534,186.269028 483.740234,194.506744 483.740234,202.674286 
	C488.305023,202.674286 492.207367,202.674286 496.141144,202.674286 
	C496.141144,192.704849 496.507538,183.041595 495.968994,173.429047 
	C495.738831,169.320419 493.622040,165.317505 491.985779,160.630646 
M243.881363,23.541946 
	C243.881363,27.669809 243.881363,31.797674 243.881363,36.010258 
	C241.662842,36.254200 239.894043,36.448689 238.121918,36.643543 
	C238.121918,40.926529 238.121918,44.964272 238.121918,48.968952 
	C240.133514,49.095650 241.755310,49.197796 243.614182,49.314869 
	C244.783478,59.199177 241.504700,69.651352 248.616150,78.276253 
	C255.860382,87.062202 265.484894,87.742920 275.871033,86.724304 
	C275.871033,82.478813 275.871033,78.421242 275.871033,74.205292 
	C269.471771,73.152306 261.021210,76.837738 258.016205,68.816498 
	C255.806717,62.918678 256.390991,55.974228 255.681564,49.018448 
	C263.229462,49.018448 269.485168,49.018448 275.913940,49.018448 
	C275.913940,44.702232 275.913940,40.783318 275.913940,36.222225 
	C269.353699,36.222225 262.983429,36.222225 256.197540,36.222225 
	C256.197540,29.184261 256.197540,22.774839 256.197540,16.309206 
	C251.866455,16.309206 247.980301,16.309206 243.881348,16.309206 
	C243.881348,18.599720 243.881348,20.579220 243.881363,23.541946 
M357.613953,189.996948 
	C350.147827,189.987610 346.045929,188.274551 345.218689,183.421265 
	C344.209381,177.499969 344.368835,171.379456 343.998688,164.924286 
	C351.333740,164.924286 357.588348,164.924286 363.853455,164.924286 
	C363.853455,160.603363 363.853455,156.690018 363.853455,152.325958 
	C357.339722,152.325958 351.079254,152.325958 344.233429,152.325958 
	C344.233429,145.347473 344.233429,138.807724 344.233429,132.364288 
	C339.745789,132.364288 335.863861,132.364288 331.634613,132.364288 
	C331.634613,139.161530 331.634613,145.591446 331.634613,152.014893 
	C329.520844,152.274628 327.760223,152.490982 326.008331,152.706253 
	C326.008331,156.939514 326.008331,160.866196 326.008331,164.917908 
	C328.013153,165.070969 329.763733,165.204620 331.635590,165.347519 
	C332.741058,175.366837 329.501862,185.812912 336.735718,194.421265 
	C344.049652,203.124924 353.646454,203.760712 363.797913,202.710052 
	C363.797913,198.344727 363.797913,194.284149 363.797913,189.996948 
	C361.835175,189.996948 360.191437,189.996948 357.613953,189.996948 
M129.579468,49.127914 
	C133.989395,49.127914 138.399307,49.127914 143.704391,49.127914 
	C136.405319,62.100170 129.555298,74.274307 122.598511,86.638229 
	C137.014603,86.638229 150.719345,86.638229 164.446564,86.638229 
	C164.446564,82.328407 164.446564,78.394386 164.446564,73.849823 
	C157.422775,73.849823 150.617035,73.849823 143.284225,73.849823 
	C150.477646,61.081688 157.273788,49.018719 164.273483,36.594437 
	C149.923355,36.594437 136.368835,36.594437 122.567284,36.594437 
	C122.567284,40.780140 122.567284,44.689655 122.567284,49.127922 
	C124.710396,49.127922 126.661736,49.127922 129.579468,49.127914 
M170.343918,86.850296 
	C183.957016,86.850296 197.570099,86.850296 211.409653,86.850296 
	C211.409653,82.503555 211.409653,78.436707 211.409653,73.978516 
	C204.408432,73.978516 197.666473,73.978516 190.235764,73.978516 
	C197.411774,61.214607 204.256149,49.040577 211.217819,36.657936 
	C196.828796,36.657936 183.254440,36.657936 169.603088,36.657936 
	C169.603088,40.920639 169.603088,44.839237 169.603088,49.321819 
	C176.555679,49.321819 183.230789,49.321819 190.546951,49.321819 
	C183.439896,62.049679 176.731659,74.063278 170.343918,86.850296 
M281.436371,160.007248 
	C279.422028,165.020813 276.397949,169.878586 275.595520,175.079147 
	C273.702393,187.348679 281.381958,198.773071 292.997894,202.622375 
	C303.904541,206.236649 316.187683,202.052094 321.336914,193.495590 
	C318.356110,190.430756 315.509216,187.503586 312.681885,184.596527 
	C306.140167,191.961761 298.173340,193.166306 292.253754,187.489166 
	C286.694580,182.157623 286.795502,172.577316 292.471619,166.818054 
	C298.326538,160.877289 304.862030,162.125610 312.750885,170.088486 
	C315.733398,167.283432 318.715668,164.478607 321.718323,161.654633 
	C312.170288,147.411758 294.436249,146.348282 281.436371,160.007248 
M305.857361,36.321960 
	C302.204590,35.939323 302.674957,37.708336 303.631989,40.181519 
	C308.667236,53.193817 313.583893,66.251953 318.553589,79.289665 
	C321.518616,87.068214 321.536163,86.833786 329.970367,87.117729 
	C333.519043,87.237198 334.867462,85.878296 335.984772,82.820099 
	C340.600830,70.185638 345.446136,57.634918 350.211029,45.054874 
	C351.242126,42.332680 352.288971,39.616447 353.381439,36.759216 
	C339.398193,35.190472 339.396362,35.189819 335.143555,47.159088 
	C334.421722,49.190639 333.723236,51.230488 333.014526,53.266712 
	C331.420441,57.846893 329.826691,62.427197 327.848450,68.111893 
	C324.930817,59.702656 322.486206,52.645302 320.033630,45.590729 
	C316.810577,36.319958 316.807892,36.320896 305.857361,36.321960 
M68.997231,174.500061 
	C68.997231,183.928787 68.997231,193.357513 68.997231,202.679047 
	C73.679741,202.679047 77.746582,202.679047 82.002914,202.679047 
	C82.002914,193.375534 81.962929,184.394501 82.016304,175.414017 
	C82.054932,168.912857 85.704773,165.250153 92.191269,165.130417 
	C95.777641,165.064224 99.366226,165.118546 102.784355,165.118546 
	C102.784355,160.495834 102.784355,156.582352 102.784355,152.448700 
	C93.333107,152.247406 84.088989,151.162399 76.783058,157.903183 
	C74.415604,155.678757 72.317665,153.707565 70.219727,151.736374 
	C69.812225,152.021103 69.404732,152.305832 68.997231,152.590576 
	C68.997231,159.560440 68.997231,166.530304 68.997231,174.500061 
M283.998749,71.496613 
	C283.998749,76.590881 283.998749,81.685150 283.998749,86.682297 
	C288.673615,86.682297 292.738434,86.682297 296.687378,86.682297 
	C296.687378,69.801201 296.687378,53.240868 296.687378,36.692345 
	C292.311279,36.692345 288.257782,36.692345 283.998749,36.692345 
	C283.998749,48.199856 283.998749,59.348999 283.998749,71.496613 
M222.587189,87.001312 
	C225.343033,87.001312 228.098862,87.001312 230.659149,87.001312 
	C230.659149,69.760254 230.659149,53.198345 230.659149,36.551922 
	C226.379578,36.551922 222.444931,36.551922 218.005127,36.551922 
	C218.005127,52.868458 217.962463,68.972046 218.158295,85.072731 
	C218.166290,85.729546 220.420135,86.359039 222.587189,87.001312 
M385.001251,175.500031 
	C385.001251,167.902847 385.001251,160.305664 385.001251,152.663849 
	C380.347290,152.663849 376.284027,152.663849 372.280334,152.663849 
	C372.280334,169.573898 372.280334,186.151611 372.280334,202.703217 
	C376.632782,202.703217 380.697388,202.703217 385.001251,202.703217 
	C385.001251,193.771378 385.001251,185.135681 385.001251,175.500031 
M378.492157,129.875534 
	C374.005554,129.822403 370.877197,132.359619 370.340942,136.349442 
	C369.983887,139.005890 371.315887,142.521057 373.082336,144.676193 
	C375.454132,147.569946 379.606934,148.167267 382.488708,145.653839 
	C384.696198,143.728485 386.736328,140.368347 386.845673,137.568054 
	C387.014954,133.233078 383.892487,130.434509 378.492157,129.875534 
M299.034149,20.870893 
	C296.221436,14.067852 290.366394,11.648182 285.508270,15.445638 
	C282.207397,18.025841 280.847473,21.440142 282.590271,25.538364 
	C284.193329,29.308002 287.247131,31.131180 291.248688,30.890715 
	C295.804169,30.616959 298.490753,27.279299 299.034149,20.870893 
M216.829208,18.653219 
	C215.044754,22.204176 215.442566,25.820021 218.432983,28.091621 
	C220.544601,29.695662 223.846985,30.721197 226.455994,30.449802 
	C230.381638,30.041447 232.777771,26.995497 233.069427,22.890799 
	C233.345581,19.004402 231.474121,16.052797 227.977280,14.584343 
	C223.618866,12.754076 219.890366,13.982598 216.829208,18.653219 
z"/>
<path fill="#14AF05" opacity="1.000000" stroke="none" 
	d="
M52.911804,66.972107 
	C43.833157,75.024101 32.956493,72.787239 22.150284,73.197495 
	C22.150284,77.755890 22.150284,82.157440 22.150284,86.772423 
	C17.385921,86.772423 13.134309,86.772423 8.602469,86.772423 
	C8.602469,64.253166 8.602469,41.853432 8.602469,19.172325 
	C18.917204,19.172325 29.109760,18.389952 39.126373,19.382740 
	C50.103268,20.470709 57.802094,27.126461 61.229454,37.763100 
	C64.856476,49.019375 61.786797,58.723141 52.911804,66.972107 
M32.358223,59.885838 
	C33.188652,59.885784 34.019279,59.897720 34.849476,59.883816 
	C42.925350,59.748604 48.644157,54.591633 49.136539,47.005375 
	C49.612610,39.670448 44.706722,33.418156 37.053413,32.535744 
	C32.197445,31.975859 27.224428,32.431103 22.277098,32.431103 
	C22.277098,41.750408 22.277098,50.636204 22.277098,59.885830 
	C25.504051,59.885830 28.458725,59.885830 32.358223,59.885838 
z"/>
<path fill="#14AF05" opacity="1.000000" stroke="none" 
	d="
M21.013550,134.993256 
	C28.143003,135.227859 34.918671,134.676987 41.376606,135.860214 
	C54.918945,138.341507 64.081291,151.444855 62.538189,164.835999 
	C60.906322,178.997482 49.730694,189.075012 35.594902,189.120972 
	C31.289326,189.134979 26.983665,189.123138 22.169367,189.123138 
	C22.169367,193.739883 22.169367,198.135422 22.169367,202.760010 
	C17.414173,202.760010 13.163900,202.760010 8.617643,202.760010 
	C8.617643,180.317551 8.617643,157.940170 8.617643,134.993256 
	C12.642367,134.993256 16.579103,134.993256 21.013550,134.993256 
M46.776077,170.051865 
	C52.060806,160.151749 47.648006,149.976166 37.080730,148.550064 
	C32.239037,147.896667 27.235991,148.438889 22.295303,148.438889 
	C22.295303,157.761520 22.295303,166.659622 22.295303,175.885834 
	C26.050674,175.885834 29.524132,175.721283 32.976021,175.923996 
	C38.292858,176.236252 42.827076,174.845551 46.776077,170.051865 
z"/>
<path fill="#13AF03" opacity="1.000000" stroke="none" 
	d="
M199.500702,200.612244 
	C186.208603,207.990509 172.855347,201.226364 167.274506,193.238358 
	C159.797974,182.536972 160.854874,167.106903 169.871796,157.884171 
	C176.881195,150.714783 190.502045,146.842072 200.784424,154.845474 
	C200.784424,147.142227 200.784424,139.828857 200.784424,132.260071 
	C205.371384,132.260071 209.435638,132.260071 213.753967,132.260071 
	C213.753967,155.744537 213.753967,179.152466 213.753967,202.782990 
	C208.875458,203.530762 209.007706,197.990356 205.660690,196.435745 
	C203.831390,197.678848 201.827286,199.040756 199.500702,200.612244 
M196.625076,166.854324 
	C191.072617,162.495575 186.060669,161.948654 181.067184,165.156555 
	C176.186630,168.291931 173.948349,175.011948 175.765808,181.073013 
	C177.553238,187.033951 181.980011,190.776443 187.498520,190.992096 
	C193.106155,191.211243 198.344299,187.533188 200.287613,181.715500 
	C202.067657,176.386612 200.961700,171.554214 196.625076,166.854324 
z"/>
<path fill="#17B008" opacity="1.000000" stroke="none" 
	d="
M402.687103,60.000114 
	C402.687073,66.661179 402.701324,72.822289 402.684448,78.983322 
	C402.634430,97.257706 388.842133,108.807014 370.511108,105.736832 
	C370.511108,101.841301 370.511108,97.912300 370.511108,93.373894 
	C377.545410,93.985107 384.365234,93.918770 388.281830,86.355736 
	C384.549225,86.864075 381.031647,88.049538 377.691620,87.670517 
	C365.901642,86.332550 358.550720,79.052315 357.729950,67.125153 
	C357.038086,57.071518 357.587555,46.932461 357.587555,36.573952 
	C361.754517,36.573952 365.664124,36.573952 370.130951,36.573952 
	C370.130951,45.517277 370.117065,54.288563 370.135101,63.059788 
	C370.151031,70.821419 373.496704,74.966850 379.710663,74.985573 
	C385.794281,75.003899 389.835480,70.158485 389.861877,62.722664 
	C389.892517,54.096992 389.869049,45.471127 389.869049,36.582466 
	C394.204102,36.582466 398.119476,36.582466 402.687134,36.582466 
	C402.687134,44.301113 402.687134,51.900623 402.687103,60.000114 
z"/>
<path fill="#14AF05" opacity="1.000000" stroke="none" 
	d="
M106.389236,83.493774 
	C91.009659,93.073067 75.026085,85.425186 69.126053,73.563240 
	C62.162731,59.563545 67.886742,42.813534 81.836197,36.458485 
	C92.710312,31.504488 106.094902,35.058857 112.990532,44.731720 
	C120.364143,55.075081 119.588539,70.205460 111.144112,79.317818 
	C109.800087,80.768158 108.168465,81.951965 106.389236,83.493774 
M88.498276,47.742138 
	C81.750763,50.366833 78.082413,56.610874 79.268478,63.452522 
	C80.385277,69.894516 85.279030,74.601303 91.248894,74.975227 
	C99.432060,75.487770 105.255974,69.284981 105.001625,60.327778 
	C104.752983,51.571392 98.513916,46.480690 88.498276,47.742138 
z"/>
<path fill="#14AF05" opacity="1.000000" stroke="none" 
	d="
M442.537659,167.715607 
	C445.984894,182.577469 441.619476,194.425903 430.761810,200.488297 
	C417.801300,207.724823 401.701965,202.776123 395.116486,189.531479 
	C388.157318,175.535263 393.904175,158.796326 407.846924,152.451508 
	C421.428680,146.270920 436.664307,152.843384 442.537659,167.715607 
M430.869324,174.061691 
	C428.339966,165.976364 422.415985,161.881622 415.472015,163.418808 
	C408.590515,164.942184 404.020996,172.100052 405.262604,179.411148 
	C406.522400,186.828979 412.557373,191.650940 419.688599,190.937454 
	C426.993744,190.206543 431.074371,184.396149 430.869324,174.061691 
z"/>
<path fill="#14AF05" opacity="1.000000" stroke="none" 
	d="
M131.065308,150.325867 
	C146.686005,151.437790 156.581879,161.288498 157.005325,175.723633 
	C157.440796,190.567688 148.146683,201.650681 133.487381,203.768250 
	C115.593262,206.353088 100.774567,187.046753 106.535980,168.654968 
	C109.975761,157.674347 118.178123,151.437057 131.065308,150.325867 
M143.869339,174.061707 
	C141.339935,165.976349 135.415955,161.881592 128.472015,163.418808 
	C121.590500,164.942215 117.020958,172.100052 118.262573,179.411133 
	C119.522316,186.828934 125.557343,191.650894 132.688583,190.937424 
	C139.993698,190.206573 144.074356,184.396194 143.869339,174.061707 
z"/>
<path fill="#18B009" opacity="1.000000" stroke="none" 
	d="
M268.689880,193.915985 
	C268.689850,197.060822 268.689850,199.719177 268.689850,202.377533 
	C268.330322,202.728882 267.970825,203.080231 267.611298,203.431580 
	C265.542145,201.629227 263.472961,199.826874 261.002594,197.675049 
	C260.293823,198.135620 259.093994,198.888336 257.921448,199.681335 
	C243.796768,209.233704 225.479599,201.269882 223.904541,184.308899 
	C222.942169,173.945694 223.726776,163.420273 223.726776,152.638779 
	C227.607788,152.638779 231.512436,152.638779 236.134598,152.638779 
	C236.134598,161.879089 236.052612,171.130981 236.162628,180.380585 
	C236.239624,186.853622 239.979248,190.901718 245.618301,190.982544 
	C251.361710,191.064896 255.761780,186.385162 255.839951,179.802795 
	C255.946487,170.832016 255.866547,161.859039 255.866547,152.600861 
	C260.148193,152.600861 264.068390,152.600861 268.689911,152.600861 
	C268.689911,166.246552 268.689911,179.838043 268.689880,193.915985 
z"/>
<path fill="#12AE02" opacity="1.000000" stroke="none" 
	d="
M492.174133,160.948608 
	C493.622040,165.317505 495.738831,169.320419 495.968994,173.429047 
	C496.507538,183.041595 496.141144,192.704849 496.141144,202.674286 
	C492.207367,202.674286 488.305023,202.674286 483.740234,202.674286 
	C483.740234,194.506744 483.778534,186.269028 483.714142,178.032120 
	C483.697357,175.891647 483.619202,173.690750 483.118408,171.626999 
	C481.875793,166.505981 477.340912,163.494980 472.304993,164.168533 
	C467.561462,164.802979 464.065979,168.740967 464.024170,173.812424 
	C463.946014,183.291397 464.001740,192.771469 464.001740,202.626007 
	C459.855011,202.626007 455.790924,202.626007 451.359772,202.626007 
	C451.359772,186.196259 451.359772,169.499283 451.359772,151.461746 
	C454.148834,153.424332 456.347717,154.971619 458.621521,156.571625 
	C472.039032,148.375488 482.775513,149.636581 492.174133,160.948608 
z"/>
<path fill="#13AF03" opacity="1.000000" stroke="none" 
	d="
M243.881348,23.050333 
	C243.881348,20.579220 243.881348,18.599720 243.881348,16.309206 
	C247.980301,16.309206 251.866455,16.309206 256.197540,16.309206 
	C256.197540,22.774839 256.197540,29.184261 256.197540,36.222225 
	C262.983429,36.222225 269.353699,36.222225 275.913940,36.222225 
	C275.913940,40.783318 275.913940,44.702232 275.913940,49.018448 
	C269.485168,49.018448 263.229462,49.018448 255.681564,49.018448 
	C256.390991,55.974228 255.806717,62.918678 258.016205,68.816498 
	C261.021210,76.837738 269.471771,73.152306 275.871033,74.205292 
	C275.871033,78.421242 275.871033,82.478813 275.871033,86.724304 
	C265.484894,87.742920 255.860382,87.062202 248.616150,78.276253 
	C241.504700,69.651352 244.783478,59.199177 243.614182,49.314869 
	C241.755310,49.197796 240.133514,49.095650 238.121918,48.968952 
	C238.121918,44.964272 238.121918,40.926529 238.121918,36.643543 
	C239.894043,36.448689 241.662842,36.254200 243.881363,36.010258 
	C243.881363,31.797674 243.881363,27.669809 243.881348,23.050333 
z"/>
<path fill="#13AF03" opacity="1.000000" stroke="none" 
	d="
M358.080811,189.996948 
	C360.191437,189.996948 361.835175,189.996948 363.797913,189.996948 
	C363.797913,194.284149 363.797913,198.344727 363.797913,202.710052 
	C353.646454,203.760712 344.049652,203.124924 336.735718,194.421265 
	C329.501862,185.812912 332.741058,175.366837 331.635590,165.347519 
	C329.763733,165.204620 328.013153,165.070969 326.008331,164.917908 
	C326.008331,160.866196 326.008331,156.939514 326.008331,152.706253 
	C327.760223,152.490982 329.520844,152.274628 331.634613,152.014893 
	C331.634613,145.591446 331.634613,139.161530 331.634613,132.364288 
	C335.863861,132.364288 339.745789,132.364288 344.233429,132.364288 
	C344.233429,138.807724 344.233429,145.347473 344.233429,152.325958 
	C351.079254,152.325958 357.339722,152.325958 363.853455,152.325958 
	C363.853455,156.690018 363.853455,160.603363 363.853455,164.924286 
	C357.588348,164.924286 351.333740,164.924286 343.998688,164.924286 
	C344.368835,171.379456 344.209381,177.499969 345.218689,183.421265 
	C346.045929,188.274551 350.147827,189.987610 358.080811,189.996948 
z"/>
<path fill="#16B007" opacity="1.000000" stroke="none" 
	d="
M129.096268,49.127918 
	C126.661736,49.127922 124.710396,49.127922 122.567284,49.127922 
	C122.567284,44.689655 122.567284,40.780140 122.567284,36.594437 
	C136.368835,36.594437 149.923355,36.594437 164.273483,36.594437 
	C157.273788,49.018719 150.477646,61.081688 143.284225,73.849823 
	C150.617035,73.849823 157.422775,73.849823 164.446564,73.849823 
	C164.446564,78.394386 164.446564,82.328407 164.446564,86.638229 
	C150.719345,86.638229 137.014603,86.638229 122.598511,86.638229 
	C129.555298,74.274307 136.405319,62.100170 143.704391,49.127914 
	C138.399307,49.127914 133.989395,49.127914 129.096268,49.127918 
z"/>
<path fill="#16B007" opacity="1.000000" stroke="none" 
	d="
M170.183685,86.463593 
	C176.731659,74.063278 183.439896,62.049679 190.546951,49.321819 
	C183.230789,49.321819 176.555679,49.321819 169.603088,49.321819 
	C169.603088,44.839237 169.603088,40.920639 169.603088,36.657936 
	C183.254440,36.657936 196.828796,36.657936 211.217819,36.657936 
	C204.256149,49.040577 197.411774,61.214607 190.235764,73.978516 
	C197.666473,73.978516 204.408432,73.978516 211.409653,73.978516 
	C211.409653,78.436707 211.409653,82.503555 211.409653,86.850296 
	C197.570099,86.850296 183.957016,86.850296 170.183685,86.463593 
z"/>
<path fill="#15AF05" opacity="1.000000" stroke="none" 
	d="
M281.667877,159.728973 
	C294.436249,146.348282 312.170288,147.411758 321.718323,161.654633 
	C318.715668,164.478607 315.733398,167.283432 312.750885,170.088486 
	C304.862030,162.125610 298.326538,160.877289 292.471619,166.818054 
	C286.795502,172.577316 286.694580,182.157623 292.253754,187.489166 
	C298.173340,193.166306 306.140167,191.961761 312.681885,184.596527 
	C315.509216,187.503586 318.356110,190.430756 321.336914,193.495590 
	C316.187683,202.052094 303.904541,206.236649 292.997894,202.622375 
	C281.381958,198.773071 273.702393,187.348679 275.595520,175.079147 
	C276.397949,169.878586 279.422028,165.020813 281.667877,159.728973 
z"/>
<path fill="#15AF06" opacity="1.000000" stroke="none" 
	d="
M306.311554,36.321701 
	C316.807892,36.320896 316.810577,36.319958 320.033630,45.590729 
	C322.486206,52.645302 324.930817,59.702656 327.848450,68.111893 
	C329.826691,62.427197 331.420441,57.846893 333.014526,53.266712 
	C333.723236,51.230488 334.421722,49.190639 335.143555,47.159088 
	C339.396362,35.189819 339.398193,35.190472 353.381439,36.759216 
	C352.288971,39.616447 351.242126,42.332680 350.211029,45.054874 
	C345.446136,57.634918 340.600830,70.185638 335.984772,82.820099 
	C334.867462,85.878296 333.519043,87.237198 329.970367,87.117729 
	C321.536163,86.833786 321.518616,87.068214 318.553589,79.289665 
	C313.583893,66.251953 308.667236,53.193817 303.631989,40.181519 
	C302.674957,37.708336 302.204590,35.939323 306.311554,36.321701 
z"/>
<path fill="#13AF03" opacity="1.000000" stroke="none" 
	d="
M68.997231,174.000122 
	C68.997231,166.530304 68.997231,159.560440 68.997231,152.590576 
	C69.404732,152.305832 69.812225,152.021103 70.219727,151.736374 
	C72.317665,153.707565 74.415604,155.678757 76.783058,157.903183 
	C84.088989,151.162399 93.333107,152.247406 102.784355,152.448700 
	C102.784355,156.582352 102.784355,160.495834 102.784355,165.118546 
	C99.366226,165.118546 95.777641,165.064224 92.191269,165.130417 
	C85.704773,165.250153 82.054932,168.912857 82.016304,175.414017 
	C81.962929,184.394501 82.002914,193.375534 82.002914,202.679047 
	C77.746582,202.679047 73.679741,202.679047 68.997231,202.679047 
	C68.997231,193.357513 68.997231,183.928787 68.997231,174.000122 
z"/>
<path fill="#12AE02" opacity="1.000000" stroke="none" 
	d="
M283.998749,70.997375 
	C283.998749,59.348999 283.998749,48.199856 283.998749,36.692345 
	C288.257782,36.692345 292.311279,36.692345 296.687378,36.692345 
	C296.687378,53.240868 296.687378,69.801201 296.687378,86.682297 
	C292.738434,86.682297 288.673615,86.682297 283.998749,86.682297 
	C283.998749,81.685150 283.998749,76.590881 283.998749,70.997375 
z"/>
<path fill="#12AE02" opacity="1.000000" stroke="none" 
	d="
M222.107407,87.001282 
	C220.420135,86.359039 218.166290,85.729546 218.158295,85.072731 
	C217.962463,68.972046 218.005127,52.868458 218.005127,36.551922 
	C222.444931,36.551922 226.379578,36.551922 230.659149,36.551922 
	C230.659149,53.198345 230.659149,69.760254 230.659149,87.001312 
	C228.098862,87.001312 225.343033,87.001312 222.107407,87.001282 
z"/>
<path fill="#12AE02" opacity="1.000000" stroke="none" 
	d="
M385.001251,176.000015 
	C385.001251,185.135681 385.001251,193.771378 385.001251,202.703217 
	C380.697388,202.703217 376.632782,202.703217 372.280334,202.703217 
	C372.280334,186.151611 372.280334,169.573898 372.280334,152.663849 
	C376.284027,152.663849 380.347290,152.663849 385.001251,152.663849 
	C385.001251,160.305664 385.001251,167.902847 385.001251,176.000015 
z"/>
<path fill="#16AF06" opacity="1.000000" stroke="none" 
	d="
M378.899292,129.878799 
	C383.892487,130.434509 387.014954,133.233078 386.845673,137.568054 
	C386.736328,140.368347 384.696198,143.728485 382.488708,145.653839 
	C379.606934,148.167267 375.454132,147.569946 373.082336,144.676193 
	C371.315887,142.521057 369.983887,139.005890 370.340942,136.349442 
	C370.877197,132.359619 374.005554,129.822403 378.899292,129.878799 
z"/>
<path fill="#16AF06" opacity="1.000000" stroke="none" 
	d="
M299.074524,21.273186 
	C298.490753,27.279299 295.804169,30.616959 291.248688,30.890715 
	C287.247131,31.131180 284.193329,29.308002 282.590271,25.538364 
	C280.847473,21.440142 282.207397,18.025841 285.508270,15.445638 
	C290.366394,11.648182 296.221436,14.067852 299.074524,21.273186 
z"/>
<path fill="#16AF06" opacity="1.000000" stroke="none" 
	d="
M216.995163,18.292849 
	C219.890366,13.982598 223.618866,12.754076 227.977280,14.584343 
	C231.474121,16.052797 233.345581,19.004402 233.069427,22.890799 
	C232.777771,26.995497 230.381638,30.041447 226.455994,30.449802 
	C223.846985,30.721197 220.544601,29.695662 218.432983,28.091621 
	C215.442566,25.820021 215.044754,22.204176 216.995163,18.292849 
z"/>
<path fill="#FAFDFA" opacity="1.000000" stroke="none" 
	d="
M31.885811,59.885834 
	C28.458725,59.885830 25.504051,59.885830 22.277098,59.885830 
	C22.277098,50.636204 22.277098,41.750408 22.277098,32.431103 
	C27.224428,32.431103 32.197445,31.975859 37.053413,32.535744 
	C44.706722,33.418156 49.612610,39.670448 49.136539,47.005375 
	C48.644157,54.591633 42.925350,59.748604 34.849476,59.883816 
	C34.019279,59.897720 33.188652,59.885784 31.885811,59.885834 
z"/>
<path fill="#FAFDFA" opacity="1.000000" stroke="none" 
	d="
M46.541954,170.350952 
	C42.827076,174.845551 38.292858,176.236252 32.976021,175.923996 
	C29.524132,175.721283 26.050674,175.885834 22.295303,175.885834 
	C22.295303,166.659622 22.295303,157.761520 22.295303,148.438889 
	C27.235991,148.438889 32.239037,147.896667 37.080730,148.550064 
	C47.648006,149.976166 52.060806,160.151749 46.541954,170.350952 
z"/>
<path fill="#FAFDFA" opacity="1.000000" stroke="none" 
	d="
M196.887238,167.118042 
	C200.961700,171.554214 202.067657,176.386612 200.287613,181.715500 
	C198.344299,187.533188 193.106155,191.211243 187.498520,190.992096 
	C181.980011,190.776443 177.553238,187.033951 175.765808,181.073013 
	C173.948349,175.011948 176.186630,168.291931 181.067184,165.156555 
	C186.060669,161.948654 191.072617,162.495575 196.887238,167.118042 
z"/>
<path fill="#F9FDF9" opacity="1.000000" stroke="none" 
	d="
M88.869293,47.604813 
	C98.513916,46.480690 104.752983,51.571392 105.001625,60.327778 
	C105.255974,69.284981 99.432060,75.487770 91.248894,74.975227 
	C85.279030,74.601303 80.385277,69.894516 79.268478,63.452522 
	C78.082413,56.610874 81.750763,50.366833 88.869293,47.604813 
z"/>
<path fill="#F9FDF9" opacity="1.000000" stroke="none" 
	d="
M430.911194,174.479919 
	C431.074371,184.396149 426.993744,190.206543 419.688599,190.937454 
	C412.557373,191.650940 406.522400,186.828979 405.262604,179.411148 
	C404.020996,172.100052 408.590515,164.942184 415.472015,163.418808 
	C422.415985,161.881622 428.339966,165.976364 430.911194,174.479919 
z"/>
<path fill="#F9FDF9" opacity="1.000000" stroke="none" 
	d="
M143.911179,174.479950 
	C144.074356,184.396194 139.993698,190.206573 132.688583,190.937424 
	C125.557343,191.650894 119.522316,186.828934 118.262573,179.411133 
	C117.020958,172.100052 121.590500,164.942215 128.472015,163.418808 
	C135.415955,161.881592 141.339935,165.976349 143.911179,174.479950 
z"/>
</svg>